<svg xmlns="http://www.w3.org/2000/svg" xmlns:xlink="http://www.w3.org/1999/xlink" width="500" zoomAndPan="magnify" viewBox="0 0 375 374.999991" height="500" preserveAspectRatio="xMidYMid meet" version="1.0"><defs><clipPath id="f55386420b"><path d="M 91 34.234375 L 278 34.234375 L 278 287 L 91 287 Z M 91 34.234375 " clip-rule="nonzero"/></clipPath></defs><g clip-path="url(#f55386420b)"><path fill="#ff5757" d="M 119.210938 259.410156 C 124.03125 260.503906 128.914062 261.074219 133.855469 261.113281 C 136.074219 261.113281 138.277344 261.003906 140.464844 260.828125 C 132.914062 255.730469 126.441406 249.511719 121.042969 242.175781 L 119.457031 224.351562 L 117.378906 224.351562 C 116.988281 224.351562 116.601562 224.316406 116.21875 224.238281 C 115.835938 224.160156 115.464844 224.050781 115.105469 223.898438 C 114.742188 223.75 114.398438 223.566406 114.074219 223.351562 C 113.75 223.132812 113.449219 222.886719 113.171875 222.609375 C 112.898438 222.332031 112.652344 222.03125 112.433594 221.707031 C 112.214844 221.382812 112.035156 221.039062 111.882812 220.679688 C 111.734375 220.320312 111.621094 219.945312 111.546875 219.5625 C 111.46875 219.179688 111.429688 218.792969 111.429688 218.402344 L 111.429688 187.746094 C 111.429688 186.988281 111.503906 186.238281 111.652344 185.496094 C 111.796875 184.75 112.015625 184.03125 112.308594 183.328125 C 112.597656 182.628906 112.953125 181.964844 113.375 181.332031 C 113.792969 180.703125 114.273438 180.117188 114.808594 179.582031 C 115.34375 179.046875 115.929688 178.566406 116.558594 178.148438 C 117.1875 177.726562 117.855469 177.371094 118.554688 177.082031 C 119.253906 176.792969 119.976562 176.574219 120.722656 176.425781 C 121.464844 176.277344 122.214844 176.203125 122.972656 176.203125 L 128.253906 176.203125 C 128.757812 176.207031 129.210938 176.0625 129.613281 175.765625 C 130.019531 175.46875 130.292969 175.082031 130.441406 174.605469 C 130.589844 174.125 130.578125 173.648438 130.414062 173.175781 C 130.246094 172.703125 129.953125 172.328125 129.535156 172.050781 C 128.527344 171.40625 127.613281 170.652344 126.796875 169.777344 C 125.980469 168.90625 125.28125 167.945312 124.707031 166.898438 C 124.132812 165.851562 123.695312 164.746094 123.398438 163.589844 C 123.101562 162.429688 122.953125 161.253906 122.957031 160.058594 L 122.957031 157.652344 C 122.957031 157.15625 122.980469 156.660156 123.03125 156.167969 C 123.082031 155.675781 123.160156 155.1875 123.261719 154.703125 C 123.363281 154.21875 123.492188 153.742188 123.644531 153.269531 C 123.796875 152.800781 123.972656 152.339844 124.175781 151.886719 C 124.375 151.433594 124.597656 150.992188 124.84375 150.5625 C 125.089844 150.132812 125.359375 149.71875 125.648438 149.316406 C 125.9375 148.914062 126.25 148.53125 126.578125 148.160156 C 126.910156 147.792969 127.257812 147.441406 127.625 147.109375 C 127.992188 146.777344 128.375 146.464844 128.773438 146.171875 C 129.171875 145.878906 129.585938 145.609375 130.015625 145.359375 C 130.441406 145.109375 130.882812 144.882812 131.332031 144.679688 C 131.785156 144.476562 132.246094 144.296875 132.714844 144.140625 C 133.183594 143.984375 133.660156 143.855469 134.144531 143.75 C 134.628906 143.644531 135.117188 143.5625 135.609375 143.507812 C 136.101562 143.453125 136.59375 143.425781 137.089844 143.421875 C 137.585938 143.417969 138.078125 143.441406 138.570312 143.488281 C 145.96875 144.195312 151.386719 150.8125 151.386719 158.253906 L 151.386719 160.085938 C 151.386719 161.28125 151.238281 162.457031 150.941406 163.617188 C 150.644531 164.773438 150.207031 165.878906 149.632812 166.925781 C 149.058594 167.972656 148.363281 168.933594 147.542969 169.804688 C 146.726562 170.679688 145.8125 171.433594 144.804688 172.078125 C 144.394531 172.359375 144.109375 172.738281 143.945312 173.207031 C 143.78125 173.679688 143.773438 174.152344 143.921875 174.628906 C 144.070312 175.105469 144.34375 175.492188 144.746094 175.789062 C 145.148438 176.082031 145.597656 176.230469 146.09375 176.230469 L 151.378906 176.230469 C 152.289062 176.234375 153.1875 176.34375 154.074219 176.558594 C 154.960938 176.773438 155.808594 177.089844 156.617188 177.507812 C 157.429688 177.921875 158.179688 178.429688 158.871094 179.023438 C 159.5625 179.621094 160.171875 180.289062 160.703125 181.027344 C 159.675781 181.347656 158.675781 181.75 157.707031 182.226562 C 156.742188 182.707031 155.816406 183.257812 154.9375 183.882812 C 154.058594 184.507812 153.234375 185.199219 152.464844 185.957031 C 151.695312 186.714844 150.992188 187.527344 150.351562 188.394531 C 149.710938 189.261719 149.140625 190.175781 148.644531 191.136719 C 148.152344 192.09375 147.734375 193.085938 147.394531 194.109375 C 147.058594 195.136719 146.804688 196.179688 146.628906 197.246094 C 146.457031 198.308594 146.371094 199.382812 146.371094 200.460938 L 146.371094 242.660156 C 146.371094 243.628906 146.511719 244.578125 146.796875 245.503906 C 147.078125 246.433594 147.484375 247.300781 148.023438 248.105469 C 148.558594 248.914062 149.203125 249.625 149.949219 250.242188 C 150.699219 250.859375 151.519531 251.355469 152.410156 251.730469 L 151.734375 259.238281 C 155.9375 258.339844 160.042969 257.117188 164.054688 255.574219 L 162.304688 246.707031 L 156.210938 246.707031 C 155.945312 246.707031 155.679688 246.679688 155.421875 246.628906 C 155.160156 246.578125 154.90625 246.5 154.660156 246.398438 C 154.414062 246.296875 154.179688 246.175781 153.960938 246.027344 C 153.738281 245.878906 153.535156 245.710938 153.347656 245.523438 C 153.160156 245.335938 152.992188 245.128906 152.84375 244.910156 C 152.695312 244.6875 152.570312 244.457031 152.46875 244.210938 C 152.367188 243.964844 152.292969 243.710938 152.242188 243.449219 C 152.1875 243.1875 152.164062 242.925781 152.164062 242.660156 L 152.164062 200.433594 C 152.164062 199.476562 152.257812 198.53125 152.445312 197.589844 C 152.632812 196.652344 152.910156 195.742188 153.277344 194.855469 C 153.644531 193.972656 154.09375 193.132812 154.625 192.335938 C 155.15625 191.542969 155.761719 190.804688 156.4375 190.128906 C 157.117188 189.453125 157.851562 188.847656 158.648438 188.316406 C 159.445312 187.785156 160.285156 187.335938 161.167969 186.972656 C 162.050781 186.605469 162.964844 186.328125 163.902344 186.140625 C 164.839844 185.957031 165.789062 185.863281 166.746094 185.863281 L 173.417969 185.863281 C 173.726562 185.863281 174.027344 185.816406 174.320312 185.722656 C 174.613281 185.628906 174.886719 185.488281 175.132812 185.308594 C 175.382812 185.125 175.597656 184.90625 175.777344 184.65625 C 175.957031 184.40625 176.089844 184.132812 176.183594 183.839844 C 176.273438 183.542969 176.316406 183.242188 176.308594 182.933594 C 176.304688 182.625 176.25 182.328125 176.148438 182.035156 C 176.046875 181.746094 175.902344 181.476562 175.714844 181.234375 C 175.523438 180.988281 175.304688 180.78125 175.046875 180.609375 C 173.773438 179.796875 172.617188 178.839844 171.585938 177.738281 C 170.550781 176.636719 169.671875 175.425781 168.945312 174.101562 C 168.214844 172.777344 167.664062 171.382812 167.289062 169.917969 C 166.914062 168.457031 166.726562 166.96875 166.726562 165.457031 L 166.726562 162.382812 C 166.726562 161.792969 166.757812 161.207031 166.8125 160.621094 C 166.871094 160.035156 166.957031 159.457031 167.074219 158.878906 C 167.1875 158.300781 167.332031 157.730469 167.5 157.167969 C 167.671875 156.605469 167.871094 156.054688 168.097656 155.507812 C 168.320312 154.964844 168.574219 154.433594 168.851562 153.917969 C 169.128906 153.398438 169.429688 152.894531 169.757812 152.40625 C 170.082031 151.914062 170.433594 151.445312 170.808594 150.988281 C 171.179688 150.535156 171.574219 150.097656 171.992188 149.683594 C 172.40625 149.269531 172.84375 148.875 173.296875 148.5 C 173.753906 148.128906 174.226562 147.777344 174.714844 147.453125 C 175.203125 147.125 175.707031 146.824219 176.226562 146.546875 C 176.746094 146.269531 177.277344 146.019531 177.820312 145.792969 C 178.363281 145.570312 178.917969 145.371094 179.480469 145.203125 C 180.042969 145.03125 180.613281 144.890625 181.191406 144.773438 C 181.769531 144.660156 182.351562 144.574219 182.933594 144.515625 C 183.519531 144.460938 184.109375 144.433594 184.695312 144.433594 C 184.789062 144.433594 184.878906 144.433594 184.96875 144.433594 C 185.0625 144.433594 185.152344 144.433594 185.246094 144.433594 C 185.832031 144.433594 186.421875 144.460938 187.007812 144.515625 C 187.59375 144.574219 188.171875 144.660156 188.75 144.773438 C 189.328125 144.886719 189.898438 145.027344 190.460938 145.199219 C 191.023438 145.371094 191.578125 145.566406 192.121094 145.792969 C 192.667969 146.015625 193.199219 146.265625 193.71875 146.542969 C 194.238281 146.820312 194.742188 147.121094 195.230469 147.449219 C 195.71875 147.773438 196.191406 148.125 196.648438 148.496094 C 197.101562 148.871094 197.539062 149.265625 197.957031 149.679688 C 198.371094 150.097656 198.765625 150.53125 199.140625 150.984375 C 199.515625 151.441406 199.863281 151.914062 200.191406 152.402344 C 200.519531 152.890625 200.820312 153.394531 201.097656 153.914062 C 201.378906 154.433594 201.628906 154.964844 201.855469 155.507812 C 202.078125 156.050781 202.277344 156.605469 202.449219 157.167969 C 202.621094 157.730469 202.761719 158.300781 202.878906 158.878906 C 202.992188 159.453125 203.078125 160.035156 203.136719 160.621094 C 203.195312 161.207031 203.222656 161.792969 203.222656 162.382812 L 203.222656 165.429688 C 203.222656 166.941406 203.039062 168.429688 202.664062 169.890625 C 202.289062 171.355469 201.738281 172.75 201.011719 174.074219 C 200.285156 175.398438 199.40625 176.609375 198.371094 177.710938 C 197.339844 178.8125 196.1875 179.769531 194.910156 180.582031 C 194.65625 180.753906 194.433594 180.960938 194.246094 181.203125 C 194.058594 181.449219 193.914062 181.714844 193.8125 182.007812 C 193.710938 182.296875 193.65625 182.597656 193.648438 182.902344 C 193.644531 183.210938 193.6875 183.511719 193.777344 183.808594 C 193.867188 184.101562 194 184.375 194.179688 184.625 C 194.359375 184.875 194.570312 185.09375 194.820312 185.273438 C 195.066406 185.457031 195.339844 185.597656 195.628906 185.691406 C 195.921875 185.789062 196.222656 185.835938 196.53125 185.835938 L 203.214844 185.835938 C 204.171875 185.835938 205.117188 185.925781 206.058594 186.113281 C 206.996094 186.300781 207.90625 186.578125 208.792969 186.945312 C 209.675781 187.308594 210.515625 187.757812 211.3125 188.289062 C 212.109375 188.820312 212.84375 189.425781 213.519531 190.101562 C 214.199219 190.777344 214.804688 191.515625 215.335938 192.308594 C 215.867188 193.105469 216.316406 193.945312 216.683594 194.828125 C 217.050781 195.714844 217.328125 196.625 217.511719 197.5625 C 217.699219 198.503906 217.792969 199.449219 217.796875 200.40625 L 217.796875 242.660156 C 217.796875 242.925781 217.769531 243.1875 217.71875 243.449219 C 217.664062 243.707031 217.589844 243.960938 217.488281 244.207031 C 217.386719 244.453125 217.261719 244.683594 217.113281 244.90625 C 216.964844 245.125 216.796875 245.328125 216.609375 245.515625 C 216.421875 245.703125 216.21875 245.871094 215.996094 246.019531 C 215.777344 246.167969 215.542969 246.289062 215.296875 246.390625 C 215.050781 246.492188 214.796875 246.570312 214.539062 246.621094 C 214.277344 246.671875 214.015625 246.695312 213.75 246.695312 L 207.652344 246.695312 L 204.84375 260.855469 C 205.839844 266.515625 203.488281 272.921875 198.617188 277.207031 C 194.496094 280.878906 189.992188 284.011719 185.117188 286.605469 C 193.949219 286.585938 202.597656 285.328125 211.066406 282.824219 C 214.8125 280.511719 218.292969 277.851562 221.511719 274.84375 C 224.433594 271.988281 227.691406 269.589844 231.289062 267.648438 C 233.859375 266.269531 236.605469 265.554688 239.527344 265.507812 C 240.714844 265.507812 241.882812 265.660156 243.03125 265.957031 C 244.171875 265.035156 245.292969 264.089844 246.390625 263.117188 C 247.488281 262.144531 248.558594 261.144531 249.609375 260.121094 C 250.660156 259.097656 251.683594 258.050781 252.683594 256.980469 C 253.683594 255.90625 254.660156 254.8125 255.605469 253.691406 C 256.554688 252.574219 257.476562 251.433594 258.367188 250.273438 C 259.261719 249.109375 260.128906 247.925781 260.964844 246.722656 C 261.804688 245.519531 262.613281 244.296875 263.390625 243.054688 C 264.171875 241.816406 264.921875 240.554688 265.640625 239.277344 C 266.363281 238 267.050781 236.707031 267.710938 235.398438 C 268.367188 234.085938 268.996094 232.761719 269.589844 231.421875 C 270.1875 230.082031 270.75 228.730469 271.28125 227.363281 C 271.8125 225.996094 272.3125 224.621094 272.777344 223.230469 C 273.246094 221.839844 273.679688 220.4375 274.078125 219.027344 C 274.476562 217.617188 274.84375 216.199219 275.175781 214.769531 C 275.507812 213.34375 275.808594 211.90625 276.070312 210.464844 C 276.335938 209.023438 276.566406 207.574219 276.761719 206.121094 C 276.957031 204.667969 277.117188 203.210938 277.246094 201.75 C 277.371094 200.292969 277.460938 198.828125 277.519531 197.363281 C 277.578125 195.898438 277.597656 194.433594 277.585938 192.964844 C 277.574219 191.5 277.527344 190.035156 277.445312 188.570312 C 277.363281 187.109375 277.246094 185.648438 277.09375 184.1875 C 276.945312 182.730469 276.757812 181.277344 276.539062 179.828125 C 276.316406 178.378906 276.0625 176.933594 275.773438 175.496094 C 275.484375 174.058594 275.164062 172.628906 274.808594 171.207031 C 274.449219 169.785156 274.058594 168.371094 273.636719 166.96875 C 273.214844 165.5625 272.757812 164.171875 272.265625 162.789062 C 271.777344 161.40625 271.253906 160.039062 270.699219 158.679688 C 270.144531 157.324219 269.558594 155.980469 268.941406 154.652344 C 268.324219 153.320312 267.671875 152.007812 266.992188 150.710938 C 266.3125 149.410156 265.601562 148.128906 264.859375 146.863281 C 264.117188 145.597656 263.347656 144.351562 262.546875 143.125 C 261.746094 141.894531 260.914062 140.6875 260.058594 139.5 L 189.464844 36.722656 C 189.203125 36.339844 188.894531 35.992188 188.546875 35.683594 C 188.199219 35.371094 187.820312 35.109375 187.40625 34.890625 C 186.996094 34.675781 186.5625 34.511719 186.109375 34.398438 C 185.65625 34.285156 185.199219 34.230469 184.734375 34.230469 C 184.265625 34.230469 183.808594 34.285156 183.355469 34.398438 C 182.902344 34.511719 182.46875 34.675781 182.058594 34.890625 C 181.644531 35.109375 181.265625 35.371094 180.917969 35.683594 C 180.570312 35.992188 180.265625 36.339844 180 36.722656 L 109.40625 139.5 C 107.808594 141.710938 106.308594 143.992188 104.914062 146.335938 C 103.515625 148.679688 102.222656 151.082031 101.039062 153.542969 C 99.851562 156.003906 98.777344 158.511719 97.816406 161.066406 C 96.851562 163.621094 96.003906 166.210938 95.269531 168.839844 C 94.535156 171.472656 93.917969 174.128906 93.421875 176.8125 C 92.921875 179.496094 92.542969 182.199219 92.28125 184.914062 C 92.023438 187.632812 91.882812 190.359375 91.863281 193.089844 C 91.847656 195.816406 91.949219 198.542969 92.171875 201.265625 C 92.394531 203.984375 92.734375 206.691406 93.195312 209.382812 C 93.660156 212.074219 94.238281 214.738281 94.9375 217.378906 C 95.632812 220.019531 96.445312 222.621094 97.375 225.191406 C 98.304688 227.757812 99.34375 230.277344 100.496094 232.753906 C 101.644531 235.230469 102.902344 237.648438 104.269531 240.015625 C 105.636719 242.378906 107.101562 244.679688 108.671875 246.914062 C 110.238281 249.148438 111.90625 251.308594 113.664062 253.394531 C 115.425781 255.480469 117.273438 257.488281 119.210938 259.410156 Z M 218.5625 157.652344 C 218.5625 157.15625 218.589844 156.660156 218.640625 156.167969 C 218.691406 155.675781 218.769531 155.1875 218.871094 154.703125 C 218.972656 154.21875 219.101562 153.742188 219.253906 153.269531 C 219.40625 152.800781 219.582031 152.339844 219.78125 151.886719 C 219.984375 151.433594 220.207031 150.992188 220.453125 150.5625 C 220.699219 150.132812 220.96875 149.71875 221.257812 149.316406 C 221.546875 148.914062 221.859375 148.53125 222.1875 148.160156 C 222.519531 147.792969 222.867188 147.441406 223.234375 147.109375 C 223.601562 146.777344 223.984375 146.464844 224.382812 146.171875 C 224.78125 145.878906 225.195312 145.609375 225.625 145.359375 C 226.050781 145.109375 226.492188 144.882812 226.941406 144.679688 C 227.394531 144.476562 227.855469 144.296875 228.324219 144.140625 C 228.792969 143.984375 229.269531 143.855469 229.753906 143.75 C 230.238281 143.644531 230.726562 143.5625 231.21875 143.507812 C 231.710938 143.453125 232.203125 143.425781 232.699219 143.421875 C 233.195312 143.417969 233.6875 143.441406 234.179688 143.488281 C 241.578125 144.195312 246.996094 150.8125 246.996094 158.253906 L 246.996094 160.085938 C 246.996094 161.28125 246.847656 162.457031 246.550781 163.617188 C 246.253906 164.773438 245.816406 165.878906 245.242188 166.925781 C 244.667969 167.972656 243.972656 168.933594 243.152344 169.804688 C 242.335938 170.679688 241.421875 171.433594 240.414062 172.078125 C 239.996094 172.355469 239.707031 172.730469 239.539062 173.203125 C 239.371094 173.675781 239.359375 174.152344 239.507812 174.632812 C 239.65625 175.109375 239.933594 175.496094 240.335938 175.792969 C 240.742188 176.089844 241.195312 176.234375 241.695312 176.230469 L 246.976562 176.230469 C 247.734375 176.230469 248.484375 176.304688 249.230469 176.453125 C 249.972656 176.601562 250.695312 176.820312 251.394531 177.109375 C 252.09375 177.402344 252.757812 177.757812 253.390625 178.175781 C 254.019531 178.597656 254.601562 179.078125 255.140625 179.613281 C 255.675781 180.148438 256.152344 180.730469 256.574219 181.363281 C 256.996094 181.992188 257.351562 182.65625 257.640625 183.359375 C 257.929688 184.058594 258.148438 184.78125 258.296875 185.523438 C 258.445312 186.265625 258.519531 187.015625 258.519531 187.773438 L 258.519531 218.402344 C 258.519531 218.792969 258.480469 219.179688 258.40625 219.5625 C 258.328125 219.945312 258.214844 220.320312 258.066406 220.679688 C 257.917969 221.039062 257.734375 221.382812 257.515625 221.707031 C 257.300781 222.03125 257.054688 222.332031 256.777344 222.609375 C 256.5 222.886719 256.199219 223.132812 255.875 223.351562 C 255.550781 223.566406 255.207031 223.75 254.847656 223.898438 C 254.484375 224.050781 254.113281 224.160156 253.730469 224.238281 C 253.347656 224.316406 252.960938 224.351562 252.570312 224.351562 L 250.492188 224.351562 L 248.964844 241.285156 C 245.105469 246.726562 240.632812 251.601562 235.539062 255.910156 C 230.449219 260.21875 224.90625 263.828125 218.902344 266.734375 L 217.546875 251.75 C 218.441406 251.375 219.261719 250.878906 220.007812 250.261719 C 220.757812 249.644531 221.398438 248.929688 221.9375 248.125 C 222.472656 247.316406 222.882812 246.449219 223.164062 245.523438 C 223.445312 244.59375 223.585938 243.648438 223.589844 242.679688 L 223.589844 200.433594 C 223.585938 199.355469 223.5 198.28125 223.328125 197.21875 C 223.15625 196.152344 222.902344 195.105469 222.5625 194.082031 C 222.226562 193.058594 221.808594 192.066406 221.3125 191.105469 C 220.816406 190.148438 220.25 189.234375 219.609375 188.367188 C 218.96875 187.5 218.265625 186.6875 217.496094 185.929688 C 216.726562 185.171875 215.898438 184.480469 215.019531 183.855469 C 214.140625 183.230469 213.21875 182.679688 212.25 182.199219 C 211.285156 181.722656 210.285156 181.320312 209.253906 181 C 209.785156 180.261719 210.398438 179.59375 211.089844 178.996094 C 211.777344 178.402344 212.53125 177.894531 213.339844 177.476562 C 214.152344 177.0625 215 176.746094 215.886719 176.53125 C 216.773438 176.316406 217.671875 176.207031 218.582031 176.203125 L 223.863281 176.203125 C 224.367188 176.207031 224.816406 176.0625 225.222656 175.765625 C 225.628906 175.46875 225.902344 175.082031 226.050781 174.605469 C 226.199219 174.125 226.1875 173.648438 226.023438 173.175781 C 225.855469 172.703125 225.5625 172.328125 225.144531 172.050781 C 224.136719 171.40625 223.222656 170.652344 222.40625 169.777344 C 221.589844 168.90625 220.890625 167.945312 220.316406 166.898438 C 219.742188 165.851562 219.304688 164.746094 219.007812 163.589844 C 218.710938 162.429688 218.5625 161.253906 218.5625 160.058594 Z M 155.632812 94.492188 L 173.886719 94.492188 L 173.886719 76.230469 L 195.578125 76.230469 L 195.578125 94.480469 L 213.824219 94.480469 L 213.824219 116.167969 L 195.578125 116.167969 L 195.578125 134.417969 L 173.886719 134.417969 L 173.886719 116.167969 L 155.632812 116.167969 Z M 155.632812 94.492188 " fill-opacity="1" fill-rule="nonzero"/></g><path fill="#004aad" d="M 203.625 57.355469 L 234.445312 102.207031 C 236.285156 103.214844 238.09375 104.277344 239.867188 105.394531 C 241.640625 106.511719 243.382812 107.679688 245.085938 108.902344 C 246.789062 110.125 248.453125 111.398438 250.082031 112.722656 C 251.707031 114.046875 253.292969 115.417969 254.835938 116.839844 C 256.378906 118.257812 257.875 119.722656 259.328125 121.234375 C 260.785156 122.746094 262.191406 124.300781 263.550781 125.898438 C 264.910156 127.496094 266.21875 129.132812 267.476562 130.808594 C 268.738281 132.484375 269.945312 134.199219 271.101562 135.949219 C 272.253906 137.699219 273.355469 139.480469 274.402344 141.300781 C 275.449219 143.117188 276.441406 144.964844 277.375 146.839844 C 278.3125 148.71875 279.1875 150.621094 280.007812 152.550781 C 280.824219 154.484375 281.585938 156.4375 282.285156 158.414062 C 282.984375 160.390625 283.625 162.386719 284.203125 164.402344 C 284.78125 166.417969 285.296875 168.449219 285.753906 170.496094 C 286.207031 172.542969 286.601562 174.601562 286.929688 176.675781 C 287.261719 178.746094 287.527344 180.824219 287.730469 182.910156 C 287.933594 185 288.074219 187.089844 288.148438 189.1875 C 288.226562 191.28125 288.238281 193.378906 288.1875 195.472656 C 288.132812 197.570312 288.019531 199.664062 287.839844 201.753906 C 287.664062 203.84375 287.421875 205.925781 287.113281 208 C 286.808594 210.074219 286.441406 212.136719 286.011719 214.191406 C 285.578125 216.242188 285.085938 218.28125 284.53125 220.300781 C 283.976562 222.324219 283.363281 224.328125 282.683594 226.3125 C 282.007812 228.296875 281.273438 230.261719 280.476562 232.199219 C 279.679688 234.140625 278.828125 236.054688 277.914062 237.941406 C 277 239.832031 276.03125 241.691406 275.007812 243.519531 C 273.980469 245.347656 272.902344 247.144531 271.765625 248.910156 C 270.632812 250.671875 269.445312 252.398438 268.203125 254.089844 C 266.964844 255.78125 265.675781 257.433594 264.335938 259.046875 C 262.996094 260.660156 261.605469 262.230469 260.171875 263.757812 C 258.734375 265.289062 257.253906 266.769531 255.726562 268.210938 C 254.203125 269.648438 252.632812 271.039062 251.023438 272.382812 C 251.113281 272.546875 251.222656 272.703125 251.304688 272.875 C 251.515625 273.34375 251.710938 273.792969 251.875 274.292969 C 252.804688 274.132812 253.742188 274.054688 254.683594 274.054688 C 255.808594 274.027344 256.914062 274.152344 258 274.429688 C 259.089844 274.710938 260.117188 275.132812 261.085938 275.699219 C 262.058594 276.265625 262.933594 276.953125 263.710938 277.761719 C 264.488281 278.570312 265.140625 279.472656 265.667969 280.464844 C 266.148438 281.382812 266.507812 282.347656 266.75 283.355469 C 267.40625 283.441406 268.054688 283.574219 268.695312 283.757812 C 269.332031 283.945312 269.949219 284.179688 270.550781 284.460938 C 271.152344 284.746094 271.726562 285.074219 272.277344 285.449219 C 272.824219 285.824219 273.339844 286.238281 273.824219 286.695312 C 274.308594 287.148438 274.75 287.640625 275.15625 288.167969 C 275.5625 288.691406 275.925781 289.246094 276.242188 289.832031 C 276.5625 290.414062 276.832031 291.019531 277.054688 291.644531 C 277.273438 292.269531 277.445312 292.910156 277.566406 293.5625 C 279.933594 291.378906 282.21875 289.113281 284.425781 286.765625 C 286.628906 284.417969 288.75 281.996094 290.785156 279.5 C 292.820312 277.003906 294.765625 274.441406 296.617188 271.808594 C 298.472656 269.175781 300.230469 266.480469 301.894531 263.722656 C 303.558594 260.964844 305.121094 258.152344 306.585938 255.285156 C 308.050781 252.417969 309.414062 249.5 310.671875 246.539062 C 311.933594 243.574219 313.085938 240.570312 314.132812 237.523438 C 315.179688 234.480469 316.121094 231.402344 316.949219 228.289062 C 317.78125 225.179688 318.5 222.042969 319.109375 218.878906 C 319.71875 215.714844 320.214844 212.535156 320.597656 209.339844 C 320.984375 206.140625 321.253906 202.9375 321.414062 199.71875 C 321.570312 196.503906 321.613281 193.285156 321.546875 190.066406 C 321.476562 186.847656 321.292969 183.632812 321 180.425781 C 320.703125 177.21875 320.296875 174.027344 319.773438 170.847656 C 319.253906 167.671875 318.621094 164.515625 317.878906 161.382812 C 317.132812 158.25 316.28125 155.144531 315.320312 152.074219 C 314.355469 149 313.285156 145.964844 312.109375 142.96875 C 310.933594 139.96875 309.652344 137.015625 308.265625 134.109375 C 306.882812 131.203125 305.394531 128.347656 303.808594 125.546875 C 302.222656 122.742188 300.539062 120 298.761719 117.316406 C 296.980469 114.632812 295.109375 112.015625 293.144531 109.464844 C 291.179688 106.914062 289.125 104.433594 286.984375 102.027344 C 284.847656 99.621094 282.625 97.292969 280.320312 95.042969 C 278.015625 92.792969 275.636719 90.625 273.179688 88.542969 C 270.722656 86.464844 268.195312 84.46875 265.597656 82.566406 C 263 80.664062 260.339844 78.851562 257.613281 77.136719 C 254.890625 75.421875 252.105469 73.804688 249.269531 72.285156 C 246.429688 70.765625 243.539062 69.347656 240.601562 68.03125 C 237.660156 66.714844 234.679688 65.507812 231.65625 64.402344 C 228.628906 63.296875 225.570312 62.296875 222.476562 61.410156 C 219.378906 60.519531 216.257812 59.742188 213.105469 59.070312 C 209.957031 58.402344 206.789062 57.847656 203.597656 57.402344 Z M 203.625 57.355469 " fill-opacity="1" fill-rule="nonzero"/><path fill="#004aad" d="M 100.738281 253.324219 C 99.675781 251.84375 98.648438 250.335938 97.664062 248.796875 C 96.679688 247.261719 95.734375 245.703125 94.832031 244.117188 C 93.929688 242.53125 93.066406 240.921875 92.25 239.292969 C 91.433594 237.660156 90.660156 236.007812 89.929688 234.335938 C 89.199219 232.664062 88.511719 230.976562 87.871094 229.265625 C 87.230469 227.558594 86.636719 225.835938 86.085938 224.09375 C 85.535156 222.355469 85.035156 220.601562 84.578125 218.835938 C 84.121094 217.070312 83.710938 215.292969 83.347656 213.503906 C 82.984375 211.714844 82.667969 209.921875 82.402344 208.117188 C 82.132812 206.3125 81.914062 204.5 81.742188 202.683594 C 81.570312 200.867188 81.445312 199.046875 81.371094 197.226562 C 81.292969 195.402344 81.265625 193.578125 81.289062 191.753906 C 81.308594 189.929688 81.378906 188.105469 81.496094 186.285156 C 81.613281 184.464844 81.777344 182.648438 81.992188 180.835938 C 82.203125 179.023438 82.464844 177.21875 82.773438 175.421875 C 83.082031 173.625 83.441406 171.835938 83.84375 170.054688 C 84.246094 168.277344 84.695312 166.507812 85.195312 164.753906 C 85.691406 163 86.234375 161.257812 86.824219 159.53125 C 87.414062 157.804688 88.046875 156.09375 88.726562 154.402344 C 89.40625 152.707031 90.128906 151.035156 90.898438 149.378906 C 91.667969 147.722656 92.480469 146.089844 93.332031 144.476562 C 94.1875 142.867188 95.085938 141.277344 96.023438 139.714844 C 96.960938 138.148438 97.941406 136.609375 98.960938 135.097656 C 99.980469 133.585938 101.042969 132.101562 102.140625 130.644531 C 103.238281 129.1875 104.375 127.761719 105.550781 126.363281 C 106.722656 124.96875 107.933594 123.605469 109.179688 122.273438 C 110.425781 120.9375 111.707031 119.640625 113.023438 118.375 C 114.339844 117.113281 115.6875 115.882812 117.066406 114.691406 C 118.445312 113.496094 119.855469 112.339844 121.296875 111.222656 C 122.738281 110.101562 124.210938 109.023438 125.707031 107.984375 C 127.207031 106.941406 128.730469 105.941406 130.285156 104.980469 C 131.835938 104.019531 133.410156 103.101562 135.011719 102.226562 L 165.832031 57.375 C 163.59375 57.6875 161.371094 58.054688 159.152344 58.476562 C 156.933594 58.898438 154.730469 59.375 152.535156 59.910156 C 150.34375 60.441406 148.164062 61.027344 146 61.664062 C 143.835938 62.304688 141.6875 62.996094 139.558594 63.742188 C 137.429688 64.488281 135.316406 65.285156 133.226562 66.136719 C 131.136719 66.984375 129.066406 67.886719 127.023438 68.839844 C 124.976562 69.792969 122.953125 70.792969 120.957031 71.84375 C 118.960938 72.898438 116.992188 73.996094 115.046875 75.148438 C 113.105469 76.296875 111.195312 77.492188 109.308594 78.738281 C 107.425781 79.980469 105.574219 81.269531 103.757812 82.605469 C 101.9375 83.941406 100.152344 85.320312 98.402344 86.746094 C 96.648438 88.167969 94.933594 89.632812 93.253906 91.140625 C 91.578125 92.652344 89.9375 94.199219 88.332031 95.789062 C 86.730469 97.378906 85.167969 99.007812 83.648438 100.671875 C 82.125 102.339844 80.644531 104.042969 79.207031 105.78125 C 77.769531 107.523438 76.378906 109.296875 75.027344 111.105469 C 73.675781 112.914062 72.371094 114.753906 71.113281 116.628906 C 69.855469 118.5 68.644531 120.402344 67.476562 122.335938 C 66.3125 124.269531 65.195312 126.230469 64.128906 128.21875 C 63.058594 130.207031 62.042969 132.21875 61.074219 134.257812 C 60.105469 136.296875 59.1875 138.359375 58.320312 140.441406 C 57.453125 142.527344 56.640625 144.628906 55.875 146.753906 C 55.113281 148.878906 54.402344 151.019531 53.746094 153.179688 C 53.089844 155.339844 52.488281 157.511719 51.9375 159.703125 C 51.386719 161.890625 50.894531 164.09375 50.453125 166.304688 C 50.011719 168.519531 49.625 170.742188 49.296875 172.972656 C 48.964844 175.207031 48.691406 177.445312 48.46875 179.691406 C 48.25 181.9375 48.085938 184.1875 47.976562 186.441406 C 47.867188 188.695312 47.8125 190.953125 47.816406 193.210938 C 47.820312 195.464844 47.878906 197.722656 47.992188 199.976562 C 48.105469 202.230469 48.273438 204.480469 48.5 206.726562 C 48.726562 208.972656 49.007812 211.210938 49.34375 213.441406 C 60.730469 228.847656 80.207031 244.34375 100.738281 253.324219 Z M 100.738281 253.324219 " fill-opacity="1" fill-rule="nonzero"/><path fill="#ff5757" d="M 258.042969 293.597656 C 265 283.75 256.855469 274.09375 243.03125 286.367188 C 249.769531 278.339844 244.441406 268.328125 234.261719 273.507812 C 227.378906 277.011719 224.761719 282.121094 214.382812 288.472656 C 190.582031 303.027344 162.304688 295.648438 154.882812 288.273438 C 172.925781 286.441406 184 281.296875 194.242188 272.28125 C 202.480469 265.011719 200.824219 247.027344 169.636719 260.382812 C 120.839844 281.289062 69.589844 253.40625 52.023438 226.933594 C 52.726562 229.671875 53.511719 232.390625 54.382812 235.082031 C 55.253906 237.769531 56.207031 240.433594 57.242188 243.066406 C 58.277344 245.695312 59.394531 248.292969 60.589844 250.859375 C 61.789062 253.421875 63.0625 255.945312 64.414062 258.429688 C 65.769531 260.910156 67.195312 263.351562 68.699219 265.746094 C 70.203125 268.140625 71.78125 270.488281 73.429688 272.785156 C 75.078125 275.085938 76.796875 277.328125 78.585938 279.519531 C 80.375 281.710938 82.230469 283.84375 84.152344 285.921875 C 86.070312 287.996094 88.054688 290.011719 90.101562 291.964844 C 92.144531 293.917969 94.25 295.808594 96.414062 297.628906 C 98.574219 299.453125 100.792969 301.207031 103.0625 302.894531 C 105.335938 304.578125 107.65625 306.191406 110.027344 307.734375 C 112.398438 309.277344 114.816406 310.742188 117.277344 312.136719 C 119.738281 313.527344 122.242188 314.84375 124.785156 316.078125 C 127.328125 317.316406 129.90625 318.472656 132.523438 319.550781 C 135.136719 320.628906 137.785156 321.625 140.460938 322.539062 C 143.136719 323.449219 145.839844 324.28125 148.570312 325.027344 C 151.296875 325.773438 154.046875 326.433594 156.816406 327.007812 C 159.585938 327.582031 162.371094 328.074219 165.167969 328.476562 C 167.96875 328.878906 170.777344 329.195312 173.597656 329.421875 C 176.417969 329.652344 179.238281 329.792969 182.066406 329.847656 C 184.894531 329.902344 187.722656 329.867188 190.546875 329.746094 C 193.375 329.625 196.195312 329.417969 199.007812 329.121094 C 201.820312 328.824219 204.621094 328.441406 207.410156 327.972656 C 210.199219 327.503906 212.972656 326.949219 215.726562 326.308594 C 218.480469 325.667969 221.214844 324.941406 223.921875 324.128906 C 226.632812 323.320312 229.316406 322.425781 231.96875 321.449219 C 234.625 320.472656 237.246094 319.414062 239.835938 318.277344 C 242.421875 317.136719 244.976562 315.917969 247.488281 314.621094 C 250 313.324219 252.472656 311.949219 254.902344 310.5 C 257.328125 309.050781 259.710938 307.527344 262.042969 305.929688 C 264.378906 304.328125 266.660156 302.660156 268.890625 300.921875 C 275.242188 295.53125 267.800781 283.886719 258.042969 293.597656 Z M 258.042969 293.597656 " fill-opacity="1" fill-rule="nonzero"/></svg>